<?xml version="1.0" standalone="no"?><!DOCTYPE svg PUBLIC "-//W3C//DTD SVG 1.1//EN" "http://www.w3.org/Graphics/SVG/1.1/DTD/svg11.dtd"><svg t="1781000217837" class="icon" viewBox="0 0 1024 1024" version="1.1" xmlns="http://www.w3.org/2000/svg" p-id="5067" xmlns:xlink="http://www.w3.org/1999/xlink" width="200" height="200"><path d="M494.69356283 344.85331332l-29.70007925-21.21434233 29.70007925 21.21434233z" fill="#8F3694" p-id="5068"></path><path d="M237.8883662 347.86798303v205.33250286c0 5.0244495 1.00488989 9.93724456 2.90301528 14.51507634l253.79052691-222.75059447-256.69354219 2.90301527z" fill="#FFD700" p-id="5069"></path><path d="M494.69356283 344.85331332z" fill="#8F3694" p-id="5070"></path><path d="M214.66424407 176.47842787l-195.28360385 138.45149732c-15.51996623 11.0537889-7.59250148 35.50610979 11.50040663 35.28280094l207.00731935-2.3447431V169.33254415c-8.15077364-0.11165443-16.30154727 2.23308866-23.22412213 7.14588372z" fill="#ADD8E6" p-id="5071"></path><path d="M259.77263512 176.59008232c-1.11654435-0.78158102-2.34474308-1.45150764-3.57294185-2.12143423l208.79379031 149.1703229-205.22084846-147.04888867z" fill="#8F3694" p-id="5072"></path><path d="M494.69356283 344.85331332l-29.70007925-21.21434233-208.79379031-149.1703229c-5.6943761-3.23797857-12.0586788-4.91279506-18.42298151-5.02444951V347.86798303l256.6935422-2.90301527 0.22330887-0.11165444z" fill="#FFD700" p-id="5073"></path><path d="M993.45391645 631.35858922l-264.17438922 2.79136082-21.32599676 261.04806511c7.7041559-0.55827217 15.4083118-3.23797857 21.77261451-8.3740825l276.12141358-220.96412353c14.40342189-11.50040663 6.14099383-34.72452875-12.39364211-34.5012199z" fill="#ADD8E6" p-id="5074"></path><path d="M494.69356283 344.96496776v291.64137983l234.69761883-2.45639755 39.74897828-485.58513049c1.45150764-17.41809161-18.98125366-27.69029947-32.15647681-16.18989283l-242.2901203 212.59004104h0.11165446-0.11165446z" fill="#FFD700" p-id="5075"></path><path d="M254.07825904 584.79869052l74.92012476 53.594128 165.58352459-1.78647093V344.96496776h-0.11165443L240.67972705 567.71556223c2.79136083 6.81092043 7.36919258 12.7286054 13.39853199 17.08312829z" fill="#FFA500" p-id="5076"></path><path d="M494.69356283 344.96496776h0.11165446l-0.11165446-0.11165444zM494.58190839 344.96496776h0.11165444v-0.11165444z" fill="#8F3694" p-id="5077"></path><path d="M494.69356283 636.60634759v119.58189807L683.05459184 888.27544027c7.48084703 5.24775835 16.18989283 7.48084703 24.89893863 6.92257488l21.32599676-261.04806511-234.5859644 2.45639755z" fill="#FFA500" p-id="5078"></path><path d="M455.61451118 728.8329095l39.07905165 27.35533616V636.60634759l-165.69517903 1.78647093z" fill="#FFD700" p-id="5079"></path></svg>